<svg xmlns="http://www.w3.org/2000/svg" xmlns:xlink="http://www.w3.org/1999/xlink" width="500" zoomAndPan="magnify" viewBox="0 0 375 374.999991" height="500" preserveAspectRatio="xMidYMid meet" version="1.0"><defs><g/><clipPath id="eccf7ff219"><path d="M 118 236 L 246 236 L 246 252.75 L 118 252.75 Z M 118 236 " clip-rule="nonzero"/></clipPath><clipPath id="a8f7a94df0"><path d="M 75.402344 0 L 299.652344 0 L 299.652344 233 L 75.402344 233 Z M 75.402344 0 " clip-rule="nonzero"/></clipPath></defs><g clip-path="url(#eccf7ff219)"><path fill="#7c898b" d="M 204.992188 248.117188 C 214.84375 248.574219 221.3125 249.316406 221.3125 250.234375 C 221.3125 251.605469 204.535156 252.75 183.863281 252.75 C 163.191406 252.75 146.414062 251.605469 146.414062 250.234375 C 146.414062 249.375 152.484375 248.632812 161.757812 248.171875 C 136.335938 247.886719 118.007812 247.027344 118.007812 246.054688 C 118.007812 245.253906 131.125 244.511719 150.535156 244.113281 C 145.039062 243.367188 141.773438 242.394531 141.773438 241.421875 C 141.773438 238.90625 162.160156 236.847656 187.355469 236.847656 C 212.496094 236.847656 232.9375 238.90625 232.9375 241.421875 C 232.9375 242.566406 228.929688 243.539062 222.34375 244.339844 C 236.316406 244.742188 245.191406 245.371094 245.191406 246.054688 C 245.191406 246.972656 228.585938 247.773438 205.109375 248.117188 Z M 204.992188 248.117188 " fill-opacity="1" fill-rule="evenodd"/></g><g clip-path="url(#a8f7a94df0)"><path fill="#ffffff" d="M 248.398438 195.3125 C 259.109375 196 265.40625 196.800781 265.40625 197.714844 C 265.40625 199.257812 247.484375 200.574219 220.96875 201.261719 C 235.800781 202.804688 245.363281 205.210938 245.363281 207.898438 C 245.363281 210.585938 236.03125 212.988281 221.484375 214.535156 C 243.703125 215.277344 259.507812 217.164062 259.507812 219.398438 C 259.507812 220.597656 254.699219 221.742188 246.683594 222.65625 C 277.433594 223.402344 299.136719 225.289062 299.136719 227.464844 C 299.136719 230.324219 261.800781 232.613281 215.816406 232.613281 C 169.777344 232.613281 132.496094 230.324219 132.496094 227.464844 C 132.496094 225.804688 144.980469 224.375 164.394531 223.402344 C 151.566406 222.429688 143.433594 221 143.433594 219.453125 C 143.433594 218.023438 150.191406 216.707031 161.070312 215.734375 C 138.453125 214.476562 122.535156 211.503906 122.535156 208.011719 C 122.535156 205.378906 131.464844 203.035156 145.4375 201.492188 C 115.148438 200.859375 94.015625 199.429688 94.015625 197.828125 C 94.015625 195.882812 123.335938 194.28125 162.390625 193.882812 C 144.464844 190.277344 128.71875 188.617188 115.089844 188.789062 C 91.09375 168.539062 75.863281 138.273438 75.863281 104.464844 C 75.863281 56.121094 107.015625 14.988281 150.363281 0.113281 C 128.773438 18.480469 115.089844 45.824219 115.089844 76.316406 C 115.089844 131.523438 159.925781 176.320312 215.1875 176.320312 C 244.90625 176.320312 271.589844 163.390625 289.914062 142.851562 C 281.957031 164.363281 267.46875 182.667969 248.859375 195.484375 L 248.457031 195.484375 Z M 248.398438 195.3125 " fill-opacity="1" fill-rule="evenodd"/></g><g fill="#ffffff" fill-opacity="1"><g transform="translate(86.825612, 319.398238)"><g><path d="M 20.875 -26.890625 L 20.46875 -20.609375 L 20.328125 -20.5625 C 19.265625 -22.144531 17.460938 -23.171875 14.921875 -23.640625 C 14.128906 -23.796875 13.363281 -23.875 12.625 -23.875 C 11.882812 -23.875 11.253906 -23.8125 10.734375 -23.6875 C 10.210938 -23.5625 9.769531 -23.375 9.40625 -23.125 C 8.613281 -22.613281 8.21875 -21.941406 8.21875 -21.109375 C 8.21875 -20.023438 8.5625 -19.210938 9.25 -18.671875 C 10.101562 -18.015625 11.519531 -17.550781 13.5 -17.28125 C 15.488281 -17.019531 17.082031 -16.660156 18.28125 -16.203125 C 19.488281 -15.753906 20.476562 -15.179688 21.25 -14.484375 C 22.695312 -13.160156 23.421875 -11.300781 23.421875 -8.90625 C 23.421875 -5.769531 22.238281 -3.351562 19.875 -1.65625 C 17.84375 -0.195312 15.285156 0.53125 12.203125 0.53125 C 9.722656 0.53125 7.269531 0.0625 4.84375 -0.875 C 4.039062 -1.1875 3.335938 -1.550781 2.734375 -1.96875 L 2.984375 -9.125 L 3.0625 -9.1875 C 4.832031 -6.132812 7.738281 -4.609375 11.78125 -4.609375 C 14.644531 -4.609375 16.539062 -5.300781 17.46875 -6.6875 C 17.789062 -7.15625 17.953125 -7.675781 17.953125 -8.25 C 17.953125 -8.832031 17.859375 -9.3125 17.671875 -9.6875 C 17.484375 -10.070312 17.175781 -10.398438 16.75 -10.671875 C 15.914062 -11.210938 14.519531 -11.570312 12.5625 -11.75 C 10.613281 -11.9375 9.015625 -12.285156 7.765625 -12.796875 C 6.523438 -13.316406 5.535156 -13.957031 4.796875 -14.71875 C 3.453125 -16.082031 2.78125 -17.992188 2.78125 -20.453125 C 2.78125 -22.992188 3.675781 -25.050781 5.46875 -26.625 C 7.28125 -28.21875 9.722656 -29.015625 12.796875 -29.015625 C 15.867188 -29.015625 18.5625 -28.304688 20.875 -26.890625 Z M 20.875 -26.890625 "/></g></g></g><g fill="#ffffff" fill-opacity="1"><g transform="translate(118.504686, 319.398238)"><g><path d="M 4.34375 -28.5625 C 5.769531 -28.507812 6.632812 -28.484375 6.9375 -28.484375 L 8.484375 -28.484375 C 9.234375 -28.484375 9.835938 -28.539062 10.296875 -28.65625 L 10.28125 0 L 4.34375 0 Z M 4.34375 -28.5625 "/></g></g></g><g fill="#ffffff" fill-opacity="1"><g transform="translate(139.288252, 319.398238)"><g><path d="M 9.46875 0.125 C 8.78125 0.0390625 7.457031 0 5.5 0 L 3.796875 0 L 3.796875 -28.5625 C 4.703125 -28.507812 5.703125 -28.484375 6.796875 -28.484375 C 7.898438 -28.484375 8.679688 -28.539062 9.140625 -28.65625 L 16.34375 -16.421875 L 23.25 -28.65625 C 23.707031 -28.539062 24.578125 -28.484375 25.859375 -28.484375 C 27.148438 -28.484375 28.253906 -28.507812 29.171875 -28.5625 L 29.171875 0 L 27.453125 0 C 25.492188 0 24.175781 0.0390625 23.5 0.125 L 23.5 -19.0625 L 16.484375 -6.53125 L 9.46875 -18.046875 Z M 9.46875 0.125 "/></g></g></g><g fill="#ffffff" fill-opacity="1"><g transform="translate(178.373689, 319.398238)"><g><path d="M 4.34375 -28.5625 C 5.769531 -28.507812 6.632812 -28.484375 6.9375 -28.484375 L 8.484375 -28.484375 C 9.234375 -28.484375 9.835938 -28.539062 10.296875 -28.65625 L 10.28125 0 L 4.34375 0 Z M 4.34375 -28.5625 "/></g></g></g><g fill="#ffffff" fill-opacity="1"><g transform="translate(199.157259, 319.398238)"><g><path d="M 9.140625 0.125 C 8.160156 0.0390625 6.90625 0 5.375 0 L 3.6875 0 L 3.6875 -28.5625 L 4.546875 -28.53125 C 5.140625 -28.5 5.585938 -28.484375 5.890625 -28.484375 L 6.515625 -28.484375 C 7.765625 -28.484375 8.640625 -28.539062 9.140625 -28.65625 L 9.140625 -16.546875 L 17.8125 -28.5625 C 18.726562 -28.507812 19.5 -28.484375 20.125 -28.484375 L 21.3125 -28.484375 C 22.78125 -28.484375 23.828125 -28.539062 24.453125 -28.65625 L 16.1875 -17.859375 L 24.328125 -1.71875 C 24.671875 -0.925781 24.992188 -0.351562 25.296875 0 L 23.984375 0 C 20.972656 0 19.097656 0.0546875 18.359375 0.171875 C 18.203125 -0.785156 17.984375 -1.617188 17.703125 -2.328125 L 12.25 -12.75 L 9.140625 -8.671875 Z M 9.140625 0.125 "/></g></g></g><g fill="#ffffff" fill-opacity="1"><g transform="translate(230.836336, 319.398238)"><g><path d="M 5.765625 0.171875 C 4.535156 0.0546875 3.097656 0 1.453125 0 L -0.234375 0 L 9.078125 -26.109375 C 9.492188 -27.273438 9.703125 -27.953125 9.703125 -28.140625 C 9.703125 -28.335938 9.695312 -28.457031 9.6875 -28.5 L 9.703125 -28.546875 C 10.628906 -28.503906 11.613281 -28.484375 12.65625 -28.484375 C 13.507812 -28.484375 14.535156 -28.5 15.734375 -28.53125 L 15.765625 -28.484375 C 15.734375 -28.421875 15.71875 -28.34375 15.71875 -28.25 C 15.71875 -27.976562 15.929688 -27.253906 16.359375 -26.078125 L 25.875 0.0625 C 25.582031 0.0507812 25.242188 0.046875 24.859375 0.046875 C 24.859375 0.046875 24.488281 0.03125 23.75 0 C 23.394531 0 23.070312 0 22.78125 0 L 19.46875 0 L 17.453125 -6.171875 L 7.78125 -6.171875 Z M 15.78125 -11.3125 L 12.546875 -21.265625 L 9.40625 -11.3125 Z M 15.78125 -11.3125 "/></g></g></g><g fill="#ffffff" fill-opacity="1"><g transform="translate(262.601034, 319.398238)"><g><path d="M 12.890625 -11.078125 C 12.460938 -11.046875 12.003906 -11.03125 11.515625 -11.03125 C 11.035156 -11.03125 10.316406 -11.066406 9.359375 -11.140625 L 9.359375 0 L 3.6875 0 L 3.6875 -28.625 C 5.6875 -28.882812 8.140625 -29.015625 11.046875 -29.015625 C 15.015625 -29.015625 17.972656 -28.28125 19.921875 -26.8125 C 21.867188 -25.351562 22.84375 -23.097656 22.84375 -20.046875 C 22.84375 -17.671875 21.953125 -15.644531 20.171875 -13.96875 C 19.585938 -13.425781 18.914062 -12.953125 18.15625 -12.546875 L 22.53125 -3.34375 C 23.382812 -1.445312 24.039062 -0.316406 24.5 0.046875 L 24.390625 0.15625 C 23.003906 -0.0703125 20.828125 -0.0664062 17.859375 0.171875 Z M 11.453125 -23.96875 C 10.722656 -23.96875 10.023438 -23.929688 9.359375 -23.859375 L 9.359375 -15.671875 C 10.054688 -15.578125 10.875 -15.53125 11.8125 -15.53125 C 12.757812 -15.53125 13.550781 -15.609375 14.1875 -15.765625 C 14.832031 -15.929688 15.394531 -16.1875 15.875 -16.53125 C 16.882812 -17.289062 17.390625 -18.425781 17.390625 -19.9375 C 17.390625 -21.445312 16.863281 -22.507812 15.8125 -23.125 C 14.820312 -23.6875 13.367188 -23.96875 11.453125 -23.96875 Z M 11.453125 -23.96875 "/></g></g></g></svg>